<svg width="111" height="119" viewBox="0 0 111 119" fill="none" xmlns="http://www.w3.org/2000/svg">
<path d="M111 64.5C111 94.5995 86.1518 119 55.5 119C24.8482 119 0 94.5995 0 64.5C0 34.4005 24.8482 10 55.5 10C86.1518 10 111 34.4005 111 64.5Z" fill="white"/>
<path d="M60.6477 24.2727H69.4545V76.2614C69.4545 80.9015 68.6023 84.8433 66.8977 88.0866C65.1932 91.33 62.7902 93.7921 59.6889 95.473C56.5876 97.1539 52.9299 97.9943 48.7159 97.9943C44.7386 97.9943 41.1993 97.2723 38.098 95.8281C34.9967 94.3603 32.5582 92.277 30.7827 89.5781C29.0071 86.8793 28.1193 83.6714 28.1193 79.9545H36.7841C36.7841 82.0142 37.2931 83.8134 38.3111 85.3523C39.3527 86.8674 40.7732 88.0511 42.5724 88.9034C44.3717 89.7557 46.4195 90.1818 48.7159 90.1818C51.2491 90.1818 53.4034 89.6491 55.179 88.5838C56.9545 87.5185 58.304 85.956 59.2273 83.8963C60.1742 81.813 60.6477 79.268 60.6477 76.2614V24.2727Z" fill="#5659E4"/>
</svg>
